# Blender 5.1.2
# www.blender.org
mtllib pyramid.mtl
o Cone
v -0.707107 -0.500000 -0.707107
v 0.707107 -0.500000 -0.707107
v 0.707107 -0.500000 0.707107
v -0.707107 -0.500000 0.707107
v 0.000000 0.500000 0.000000
vn -0.0000 0.5774 -0.8165
vn 0.8165 0.5774 -0.0000
vn -0.0000 -1.0000 -0.0000
vn -0.0000 0.5774 0.8165
vn -0.8165 0.5774 -0.0000
vt 0.255083 0.965009
vt 0.469574 1.023101
vt 0.776786 0.950395
vt 0.704022 0.618302
vt 0.447266 0.582093
vt 0.745859 0.250000
vt 0.441406 0.010000
vt 0.129187 0.250000
vt 0.209323 0.623221
s 0
usemtl Material.001
f 1/1/1 5/2/1 2/3/1
f 2/3/2 5/2/2 3/4/2
f 1/5/3 2/6/3 3/7/3 4/8/3
f 3/4/4 5/2/4 4/9/4
f 4/9/5 5/2/5 1/1/5
